<?xml version="1.0" encoding="UTF-8" standalone="no"?>
<!DOCTYPE svg PUBLIC "-//W3C//DTD SVG 1.1//EN"
 "http://www.w3.org/Graphics/SVG/1.1/DTD/svg11.dtd">
<!-- Generated by graphviz version 2.34.0 (20130907.0228)
 -->
<!-- Title: %3 Pages: 1 -->
<svg width="510pt" height="268pt"
 viewBox="0.00 0.00 510.00 268.00" xmlns="http://www.w3.org/2000/svg" xmlns:xlink="http://www.w3.org/1999/xlink">
<g id="graph0" class="graph" transform="scale(1 1) rotate(0) translate(4 264)">
<title>%3</title>
<polygon fill="white" stroke="white" points="-4,4 -4,-264 506,-264 506,4 -4,4"/>
<!-- org_liveSense_misc_configurationLoader -->
<g id="node1" class="node"><title>org_liveSense_misc_configurationLoader</title>
<polygon fill="yellow" stroke="black" points="164.5,-223 164.5,-259 377.5,-259 377.5,-223 164.5,-223"/>
<text text-anchor="middle" x="271" y="-248.1" font-family="Arial" font-size="8.00">liveSense :: Misc :: Initial Configuration Loader</text>
<polyline fill="none" stroke="black" points="164.5,-241 377.5,-241 "/>
<text text-anchor="middle" x="271" y="-230.1" font-family="Arial" font-size="8.00">org.liveSense.misc.configurationLoader(2&#45;SNAPSHOT)</text>
</g>
<!-- org_apache_felix_configadmin -->
<g id="node2" class="node"><title>org_apache_felix_configadmin</title>
<polygon fill="green" stroke="black" points="0,-149 0,-185 166,-185 166,-149 0,-149"/>
<text text-anchor="middle" x="83" y="-174.1" font-family="Arial" font-size="8.00">Apache Felix Configuration Admin Service</text>
<polyline fill="none" stroke="black" points="0,-167 166,-167 "/>
<text text-anchor="middle" x="83" y="-156.1" font-family="Arial" font-size="8.00">org.apache.felix.configadmin(1.6.0)</text>
</g>
<!-- org_liveSense_misc_configurationLoader&#45;&gt;org_apache_felix_configadmin -->
<g id="edge1" class="edge"><title>org_liveSense_misc_configurationLoader&#45;&gt;org_apache_felix_configadmin</title>
<path fill="none" stroke="yellow" d="M226.447,-222.937C199.619,-212.663 165.28,-199.511 136.926,-188.652"/>
<polygon fill="yellow" stroke="yellow" points="138.149,-185.373 127.559,-185.065 135.646,-191.91 138.149,-185.373"/>
</g>
<!-- org_apache_commons_lang -->
<g id="node3" class="node"><title>org_apache_commons_lang</title>
<polygon fill="green" stroke="black" points="375.5,-149 375.5,-185 502.5,-185 502.5,-149 375.5,-149"/>
<text text-anchor="middle" x="439" y="-174.1" font-family="Arial" font-size="8.00">Commons Lang</text>
<polyline fill="none" stroke="black" points="375.5,-167 502.5,-167 "/>
<text text-anchor="middle" x="439" y="-156.1" font-family="Arial" font-size="8.00">org.apache.commons.lang(2.6)</text>
</g>
<!-- org_liveSense_misc_configurationLoader&#45;&gt;org_apache_commons_lang -->
<g id="edge2" class="edge"><title>org_liveSense_misc_configurationLoader&#45;&gt;org_apache_commons_lang</title>
<path fill="none" stroke="yellow" d="M310.814,-222.937C334.474,-212.797 364.674,-199.854 389.817,-189.078"/>
<polygon fill="yellow" stroke="yellow" points="391.369,-192.221 399.181,-185.065 388.611,-185.787 391.369,-192.221"/>
</g>
<!-- org_ops4j_pax_logging_pax_logging_api -->
<g id="node4" class="node"><title>org_ops4j_pax_logging_pax_logging_api</title>
<polygon fill="green" stroke="black" points="184.5,-149 184.5,-185 357.5,-185 357.5,-149 184.5,-149"/>
<text text-anchor="middle" x="271" y="-174.1" font-family="Arial" font-size="8.00">OPS4J Pax Logging &#45; API</text>
<polyline fill="none" stroke="black" points="184.5,-167 357.5,-167 "/>
<text text-anchor="middle" x="271" y="-156.1" font-family="Arial" font-size="8.00">org.ops4j.pax.logging.pax&#45;logging&#45;api(1.7.0)</text>
</g>
<!-- org_liveSense_misc_configurationLoader&#45;&gt;org_ops4j_pax_logging_pax_logging_api -->
<g id="edge3" class="edge"><title>org_liveSense_misc_configurationLoader&#45;&gt;org_ops4j_pax_logging_pax_logging_api</title>
<path fill="none" stroke="yellow" d="M271,-222.937C271,-214.807 271,-204.876 271,-195.705"/>
<polygon fill="yellow" stroke="yellow" points="274.5,-195.441 271,-185.441 267.5,-195.441 274.5,-195.441"/>
</g>
<!-- org_apache_felix_configadmin&#45;&gt;org_ops4j_pax_logging_pax_logging_api -->
<g id="edge4" class="edge"><title>org_apache_felix_configadmin&#45;&gt;org_ops4j_pax_logging_pax_logging_api</title>
<path fill="none" stroke="green" d="M166.352,-167C168.975,-167 171.598,-167 174.221,-167"/>
<polygon fill="green" stroke="green" points="174.338,-170.5 184.338,-167 174.338,-163.5 174.338,-170.5"/>
</g>
<!-- org_apache_felix_eventadmin -->
<g id="node5" class="node"><title>org_apache_felix_eventadmin</title>
<polygon fill="#9ecae1" stroke="black" points="152,-75 152,-111 292,-111 292,-75 152,-75"/>
<text text-anchor="middle" x="222" y="-100.1" font-family="Arial" font-size="8.00">Apache Felix EventAdmin</text>
<polyline fill="none" stroke="black" points="152,-93 292,-93 "/>
<text text-anchor="middle" x="222" y="-82.1" font-family="Arial" font-size="8.00">org.apache.felix.eventadmin(1.3.2)</text>
</g>
<!-- org_ops4j_pax_logging_pax_logging_api&#45;&gt;org_apache_felix_eventadmin -->
<g id="edge5" class="edge"><title>org_ops4j_pax_logging_pax_logging_api&#45;&gt;org_apache_felix_eventadmin</title>
<path fill="none" stroke="#3182bd" d="M253.548,-148.937C246.805,-140.365 239.381,-129.791 233.318,-120.217"/>
<polygon fill="#3182bd" stroke="#3182bd" points="236.172,-118.172 227.99,-111.441 230.188,-121.805 236.172,-118.172"/>
</g>
<!-- org_apache_felix_eventadmin&#45;&gt;org_apache_felix_configadmin -->
<g id="edge7" class="edge"><title>org_apache_felix_eventadmin&#45;&gt;org_apache_felix_configadmin</title>
<path fill="none" stroke="#9ecae1" d="M188.814,-111.19C169.694,-121.094 145.476,-133.638 125.035,-144.226"/>
<polygon fill="#9ecae1" stroke="#9ecae1" points="123.211,-141.23 115.941,-148.937 126.43,-147.445 123.211,-141.23"/>
</g>
<!-- org_apache_felix_eventadmin&#45;&gt;org_ops4j_pax_logging_pax_logging_api -->
<g id="edge6" class="edge"><title>org_apache_felix_eventadmin&#45;&gt;org_ops4j_pax_logging_pax_logging_api</title>
<path fill="none" stroke="#9ecae1" d="M239.749,-111.441C246.511,-120.07 253.925,-130.658 259.947,-140.203"/>
<polygon fill="#9ecae1" stroke="#9ecae1" points="257.058,-142.191 265.228,-148.937 263.049,-138.569 257.058,-142.191"/>
</g>
<!-- org_apache_felix_metatype -->
<g id="node6" class="node"><title>org_apache_felix_metatype</title>
<polygon fill="#deebf7" stroke="black" points="205.5,-1 205.5,-37 336.5,-37 336.5,-1 205.5,-1"/>
<text text-anchor="middle" x="271" y="-26.1" font-family="Arial" font-size="8.00">Apache Felix Metatype Service</text>
<polyline fill="none" stroke="black" points="205.5,-19 336.5,-19 "/>
<text text-anchor="middle" x="271" y="-8.1" font-family="Arial" font-size="8.00">org.apache.felix.metatype(1.0.6)</text>
</g>
<!-- org_apache_felix_eventadmin&#45;&gt;org_apache_felix_metatype -->
<g id="edge8" class="edge"><title>org_apache_felix_eventadmin&#45;&gt;org_apache_felix_metatype</title>
<path fill="none" stroke="#9ecae1" d="M233.612,-74.937C239.506,-66.277 246.791,-55.5731 253.36,-45.9207"/>
<polygon fill="#9ecae1" stroke="#9ecae1" points="256.398,-47.677 259.131,-37.4407 250.611,-43.7386 256.398,-47.677"/>
</g>
<!-- org_apache_felix_metatype&#45;&gt;org_ops4j_pax_logging_pax_logging_api -->
<g id="edge9" class="edge"><title>org_apache_felix_metatype&#45;&gt;org_ops4j_pax_logging_pax_logging_api</title>
<path fill="none" stroke="#deebf7" d="M283.417,-37.0335C290.057,-47.2114 297.557,-60.7114 301,-74 305.236,-90.3489 305.236,-95.6511 301,-112 298.471,-121.759 293.755,-131.632 288.798,-140.219"/>
<polygon fill="#deebf7" stroke="#deebf7" points="285.676,-138.615 283.417,-148.966 291.638,-142.283 285.676,-138.615"/>
</g>
</g>
</svg>
