<?xml version="1.0" encoding="UTF-8" standalone="no"?>
<!DOCTYPE svg PUBLIC "-//W3C//DTD SVG 1.1//EN"
 "http://www.w3.org/Graphics/SVG/1.1/DTD/svg11.dtd">
<!-- Generated by graphviz version 2.28.0 (20110509.1545)
 -->
<!-- Title: _anonymous_0 Pages: 1 -->
<svg width="1519pt" height="564pt"
 viewBox="0.00 0.00 1519.00 564.00" xmlns="http://www.w3.org/2000/svg" xmlns:xlink="http://www.w3.org/1999/xlink">
<g id="graph1" class="graph" transform="scale(1 1) rotate(0) translate(4 560)">
<title>_anonymous_0</title>
<polygon fill="white" stroke="white" points="-4,5 -4,-560 1516,-560 1516,5 -4,5"/>
<!-- org_liveSense_misc_configurationLoader -->
<g id="node1" class="node"><title>org_liveSense_misc_configurationLoader</title>
<polygon fill="yellow" stroke="black" points="161.736,-519 161.736,-555 374.264,-555 374.264,-519 161.736,-519"/>
<text text-anchor="middle" x="268" y="-543" font-family="Arial" font-size="8.00">liveSense :: Misc :: Initial Configuration Loader</text>
<polyline fill="none" stroke="black" points="161.736,-537.801 374.264,-537.801 "/>
<text text-anchor="middle" x="268" y="-525.301" font-family="Arial" font-size="8.00">org.liveSense.misc.configurationLoader(2&#45;SNAPSHOT)</text>
</g>
<!-- org_apache_sling_commons_logservice -->
<g id="node2" class="node"><title>org_apache_sling_commons_logservice</title>
<polygon fill="green" stroke="black" points="272.955,-445 272.955,-481 457.045,-481 457.045,-445 272.955,-445"/>
<text text-anchor="middle" x="365" y="-469" font-family="Arial" font-size="8.00">Apache Sling OSGi LogService Implementation</text>
<polyline fill="none" stroke="black" points="272.955,-463.801 457.045,-463.801 "/>
<text text-anchor="middle" x="365" y="-451.301" font-family="Arial" font-size="8.00">org.apache.sling.commons.logservice(1.0.0)</text>
</g>
<!-- org_liveSense_misc_configurationLoader&#45;&gt;org_apache_sling_commons_logservice -->
<g id="edge2" class="edge"><title>org_liveSense_misc_configurationLoader&#45;&gt;org_apache_sling_commons_logservice</title>
<path fill="none" stroke="yellow" d="M290.988,-518.937C303.7,-509.501 319.681,-497.639 333.537,-487.354"/>
<polygon fill="yellow" stroke="yellow" points="335.898,-489.961 341.841,-481.19 331.725,-484.34 335.898,-489.961"/>
</g>
<!-- org_apache_felix_configadmin -->
<g id="node3" class="node"><title>org_apache_felix_configadmin</title>
<polygon fill="green" stroke="black" points="89.2949,-445 89.2949,-481 254.705,-481 254.705,-445 89.2949,-445"/>
<text text-anchor="middle" x="172" y="-469" font-family="Arial" font-size="8.00">Apache Felix Configuration Admin Service</text>
<polyline fill="none" stroke="black" points="89.2949,-463.801 254.705,-463.801 "/>
<text text-anchor="middle" x="172" y="-451.301" font-family="Arial" font-size="8.00">org.apache.felix.configadmin(1.2.8)</text>
</g>
<!-- org_liveSense_misc_configurationLoader&#45;&gt;org_apache_felix_configadmin -->
<g id="edge4" class="edge"><title>org_liveSense_misc_configurationLoader&#45;&gt;org_apache_felix_configadmin</title>
<path fill="none" stroke="yellow" d="M245.249,-518.937C232.668,-509.501 216.852,-497.639 203.139,-487.354"/>
<polygon fill="yellow" stroke="yellow" points="205.02,-484.39 194.92,-481.19 200.82,-489.99 205.02,-484.39"/>
</g>
<!-- slf4j_api -->
<g id="node4" class="node"><title>slf4j_api</title>
<polygon fill="#3182bd" stroke="black" points="838.877,-371 838.877,-407 905.123,-407 905.123,-371 838.877,-371"/>
<text text-anchor="middle" x="872" y="-395" font-family="Arial" font-size="8.00">slf4j&#45;api</text>
<polyline fill="none" stroke="black" points="838.877,-389.801 905.123,-389.801 "/>
<text text-anchor="middle" x="872" y="-377.301" font-family="Arial" font-size="8.00">slf4j.api(1.6.1)</text>
</g>
<!-- org_apache_sling_commons_logservice&#45;&gt;slf4j_api -->
<g id="edge6" class="edge"><title>org_apache_sling_commons_logservice&#45;&gt;slf4j_api</title>
<path fill="none" stroke="green" d="M457.108,-448.92C567.167,-433.29 746.705,-407.793 828.697,-396.149"/>
<polygon fill="green" stroke="green" points="829.261,-399.605 838.669,-394.733 828.276,-392.674 829.261,-399.605"/>
</g>
<!-- org_apache_felix_configadmin&#45;&gt;org_apache_sling_commons_logservice -->
<g id="edge52" class="edge"><title>org_apache_felix_configadmin&#45;&gt;org_apache_sling_commons_logservice</title>
<path fill="none" stroke="#bdbdbd" d="M254.93,-463C257.409,-463 259.888,-463 262.367,-463"/>
<polygon fill="#bdbdbd" stroke="#bdbdbd" points="262.558,-466.5 272.558,-463 262.558,-459.5 262.558,-466.5"/>
</g>
<!-- ch_qos_logback_classic -->
<g id="node5" class="node"><title>ch_qos_logback_classic</title>
<polygon fill="#9ecae1" stroke="black" points="1030.64,-297 1030.64,-333 1149.36,-333 1149.36,-297 1030.64,-297"/>
<text text-anchor="middle" x="1090" y="-321" font-family="Arial" font-size="8.00">Logback Classic Module</text>
<polyline fill="none" stroke="black" points="1030.64,-315.801 1149.36,-315.801 "/>
<text text-anchor="middle" x="1090" y="-303.301" font-family="Arial" font-size="8.00">ch.qos.logback.classic(1.0.3)</text>
</g>
<!-- slf4j_api&#45;&gt;ch_qos_logback_classic -->
<g id="edge8" class="edge"><title>slf4j_api&#45;&gt;ch_qos_logback_classic</title>
<path fill="none" stroke="#3182bd" d="M905.181,-375.294C936.366,-364.464 983.801,-348.705 1022.84,-336.155"/>
<polygon fill="#3182bd" stroke="#3182bd" points="1024.12,-339.422 1032.57,-333.038 1021.98,-332.755 1024.12,-339.422"/>
</g>
<!-- ch_qos_logback_classic&#45;&gt;slf4j_api -->
<g id="edge14" class="edge"><title>ch_qos_logback_classic&#45;&gt;slf4j_api</title>
<path fill="none" stroke="#9ecae1" d="M1043.95,-333.14C1005.78,-346.202 952.057,-363.879 914.801,-375.596"/>
<polygon fill="#9ecae1" stroke="#9ecae1" points="913.732,-372.264 905.231,-378.587 915.82,-378.945 913.732,-372.264"/>
</g>
<!-- ch_qos_logback_core -->
<g id="node6" class="node"><title>ch_qos_logback_core</title>
<polygon fill="#deebf7" stroke="black" points="1275.86,-223 1275.86,-259 1386.14,-259 1386.14,-223 1275.86,-223"/>
<text text-anchor="middle" x="1331" y="-247" font-family="Arial" font-size="8.00">Logback Core Module</text>
<polyline fill="none" stroke="black" points="1275.86,-241.801 1386.14,-241.801 "/>
<text text-anchor="middle" x="1331" y="-229.301" font-family="Arial" font-size="8.00">ch.qos.logback.core(1.0.3)</text>
</g>
<!-- ch_qos_logback_classic&#45;&gt;ch_qos_logback_core -->
<g id="edge10" class="edge"><title>ch_qos_logback_classic&#45;&gt;ch_qos_logback_core</title>
<path fill="none" stroke="#9ecae1" d="M1147.11,-296.937C1182.76,-286.287 1228.76,-272.545 1265.83,-261.47"/>
<polygon fill="#9ecae1" stroke="#9ecae1" points="1266.96,-264.785 1275.54,-258.568 1264.96,-258.077 1266.96,-264.785"/>
</g>
<!-- org_apache_felix_http_jetty -->
<g id="node7" class="node"><title>org_apache_felix_http_jetty</title>
<polygon fill="#deebf7" stroke="black" points="1011.97,-1 1011.97,-37 1140.03,-37 1140.03,-1 1011.97,-1"/>
<text text-anchor="middle" x="1076" y="-25" font-family="Arial" font-size="8.00">Apache Felix Http Jetty</text>
<polyline fill="none" stroke="black" points="1011.97,-19.8008 1140.03,-19.8008 "/>
<text text-anchor="middle" x="1076" y="-7.30078" font-family="Arial" font-size="8.00">org.apache.felix.http.jetty(2.2.0)</text>
</g>
<!-- ch_qos_logback_classic&#45;&gt;org_apache_felix_http_jetty -->
<g id="edge12" class="edge"><title>ch_qos_logback_classic&#45;&gt;org_apache_felix_http_jetty</title>
<path fill="none" stroke="#9ecae1" d="M1149.42,-309.473C1226.68,-302.585 1356.35,-287.299 1395,-260 1438.42,-229.332 1441.62,-200.962 1437,-148 1434.1,-114.734 1447.85,-97.3753 1424,-74 1386.27,-37.0135 1240.86,-25.3552 1150.37,-21.6839"/>
<polygon fill="#9ecae1" stroke="#9ecae1" points="1150.28,-18.1783 1140.16,-21.294 1150.02,-25.1732 1150.28,-18.1783"/>
</g>
<!-- groovy_all -->
<g id="node8" class="node"><title>groovy_all</title>
<polygon fill="#deebf7" stroke="black" points="1053.1,-223 1053.1,-259 1126.9,-259 1126.9,-223 1053.1,-223"/>
<text text-anchor="middle" x="1090" y="-247" font-family="Arial" font-size="8.00">Groovy Runtime</text>
<polyline fill="none" stroke="black" points="1053.1,-241.801 1126.9,-241.801 "/>
<text text-anchor="middle" x="1090" y="-229.301" font-family="Arial" font-size="8.00">groovy&#45;all(1.8.2)</text>
</g>
<!-- ch_qos_logback_classic&#45;&gt;groovy_all -->
<g id="edge16" class="edge"><title>ch_qos_logback_classic&#45;&gt;groovy_all</title>
<path fill="none" stroke="#9ecae1" d="M1090,-296.937C1090,-288.807 1090,-278.876 1090,-269.705"/>
<polygon fill="#9ecae1" stroke="#9ecae1" points="1093.5,-269.441 1090,-259.441 1086.5,-269.441 1093.5,-269.441"/>
</g>
<!-- ch_qos_logback_core&#45;&gt;org_apache_felix_http_jetty -->
<g id="edge20" class="edge"><title>ch_qos_logback_core&#45;&gt;org_apache_felix_http_jetty</title>
<path fill="none" stroke="#deebf7" d="M1375.16,-222.836C1390.97,-214.292 1407.08,-202.242 1416,-186 1440.39,-141.613 1432.71,-107.811 1395,-74 1359.82,-42.457 1233.12,-29.0512 1150.37,-23.5666"/>
<polygon fill="#deebf7" stroke="#deebf7" points="1150.46,-20.0652 1140.26,-22.921 1150.01,-27.051 1150.46,-20.0652"/>
</g>
<!-- org_glassfish_javax_mail -->
<g id="node9" class="node"><title>org_glassfish_javax_mail</title>
<polygon fill="#bdbdbd" stroke="black" points="1254.75,-149 1254.75,-185 1407.25,-185 1407.25,-149 1254.75,-149"/>
<text text-anchor="middle" x="1331" y="-173" font-family="Arial" font-size="8.00">javax.mail API v.1.4</text>
<polyline fill="none" stroke="black" points="1254.75,-167.801 1407.25,-167.801 "/>
<text text-anchor="middle" x="1331" y="-155.301" font-family="Arial" font-size="8.00">org.glassfish.javax.mail(3.0.0.Preview)</text>
</g>
<!-- ch_qos_logback_core&#45;&gt;org_glassfish_javax_mail -->
<g id="edge18" class="edge"><title>ch_qos_logback_core&#45;&gt;org_glassfish_javax_mail</title>
<path fill="none" stroke="#deebf7" d="M1331,-222.937C1331,-214.807 1331,-204.876 1331,-195.705"/>
<polygon fill="#deebf7" stroke="#deebf7" points="1334.5,-195.441 1331,-185.441 1327.5,-195.441 1334.5,-195.441"/>
</g>
<!-- org_apache_felix_http_jetty&#45;&gt;org_apache_sling_commons_logservice -->
<g id="edge28" class="edge"><title>org_apache_felix_http_jetty&#45;&gt;org_apache_sling_commons_logservice</title>
<path fill="none" stroke="#bdbdbd" d="M1011.68,-21.0054C855.445,-24.0468 465.526,-35.4565 422,-74 390.742,-101.68 403,-124.248 403,-166 403,-316 403,-316 403,-316 403,-358.876 387.462,-406.616 376.257,-435.469"/>
<polygon fill="#bdbdbd" stroke="#bdbdbd" points="372.97,-434.263 372.508,-444.847 379.47,-436.862 372.97,-434.263"/>
</g>
<!-- org_apache_felix_http_jetty&#45;&gt;org_apache_felix_configadmin -->
<g id="edge32" class="edge"><title>org_apache_felix_http_jetty&#45;&gt;org_apache_felix_configadmin</title>
<path fill="none" stroke="#bdbdbd" d="M1011.75,-22.1643C852.987,-27.9288 451.145,-45.2079 398,-74 352.587,-98.6033 327,-114.351 327,-166 327,-316 327,-316 327,-316 327,-374.795 267.175,-416.887 221.859,-440.337"/>
<polygon fill="#bdbdbd" stroke="#bdbdbd" points="220.095,-437.306 212.724,-444.917 223.232,-443.563 220.095,-437.306"/>
</g>
<!-- org_apache_felix_http_jetty&#45;&gt;slf4j_api -->
<g id="edge30" class="edge"><title>org_apache_felix_http_jetty&#45;&gt;slf4j_api</title>
<path fill="none" stroke="#bdbdbd" d="M1140.15,-23.3016C1232.15,-29.0432 1395.99,-43.319 1446,-74 1488.67,-100.182 1511,-115.935 1511,-166 1511,-242 1511,-242 1511,-242 1511,-364.397 1059.8,-384.185 915.686,-387.383"/>
<polygon fill="#bdbdbd" stroke="#bdbdbd" points="915.382,-383.889 905.456,-387.594 915.526,-390.887 915.382,-383.889"/>
</g>
<!-- groovy_all&#45;&gt;org_apache_felix_http_jetty -->
<g id="edge24" class="edge"><title>groovy_all&#45;&gt;org_apache_felix_http_jetty</title>
<path fill="none" stroke="#deebf7" d="M1125.07,-222.816C1145.03,-212.696 1170.31,-199.302 1192,-186 1217.02,-170.659 1219.46,-160.518 1246,-148 1300.61,-122.243 1340.4,-160.02 1377,-112 1387.24,-98.5684 1387.84,-86.9538 1377,-74 1348.62,-40.0746 1229.67,-27.4351 1150.07,-22.7447"/>
<polygon fill="#deebf7" stroke="#deebf7" points="1150.26,-19.2501 1140.08,-22.1855 1149.87,-26.2392 1150.26,-19.2501"/>
</g>
<!-- org_apache_servicemix_bundles_xstream -->
<g id="node10" class="node"><title>org_apache_servicemix_bundles_xstream</title>
<polygon fill="#bdbdbd" stroke="black" points="996.627,-149 996.627,-185 1183.37,-185 1183.37,-149 996.627,-149"/>
<text text-anchor="middle" x="1090" y="-173" font-family="Arial" font-size="8.00">Apache ServiceMix :: Bundles :: xstream</text>
<polyline fill="none" stroke="black" points="996.627,-167.801 1183.37,-167.801 "/>
<text text-anchor="middle" x="1090" y="-155.301" font-family="Arial" font-size="8.00">org.apache.servicemix.bundles.xstream(1.4.1.1)</text>
</g>
<!-- groovy_all&#45;&gt;org_apache_servicemix_bundles_xstream -->
<g id="edge22" class="edge"><title>groovy_all&#45;&gt;org_apache_servicemix_bundles_xstream</title>
<path fill="none" stroke="#deebf7" d="M1090,-222.937C1090,-214.807 1090,-204.876 1090,-195.705"/>
<polygon fill="#deebf7" stroke="#deebf7" points="1093.5,-195.441 1090,-185.441 1086.5,-195.441 1093.5,-195.441"/>
</g>
<!-- org_apache_sling_scripting_jsp -->
<g id="node11" class="node"><title>org_apache_sling_scripting_jsp</title>
<polygon fill="#bdbdbd" stroke="black" points="639.631,-149 639.631,-185 786.369,-185 786.369,-149 639.631,-149"/>
<text text-anchor="middle" x="713" y="-173" font-family="Arial" font-size="8.00">Apache Sling Scripting JSP Support</text>
<polyline fill="none" stroke="black" points="639.631,-167.801 786.369,-167.801 "/>
<text text-anchor="middle" x="713" y="-155.301" font-family="Arial" font-size="8.00">org.apache.sling.scripting.jsp(2.0.24)</text>
</g>
<!-- groovy_all&#45;&gt;org_apache_sling_scripting_jsp -->
<g id="edge26" class="edge"><title>groovy_all&#45;&gt;org_apache_sling_scripting_jsp</title>
<path fill="none" stroke="#deebf7" d="M1052.82,-232.899C993.676,-221.604 876.684,-199.261 796.66,-183.977"/>
<polygon fill="#deebf7" stroke="#deebf7" points="797.081,-180.495 786.602,-182.057 795.768,-187.37 797.081,-180.495"/>
</g>
<!-- org_apache_servicemix_bundles_xpp3 -->
<g id="node12" class="node"><title>org_apache_servicemix_bundles_xpp3</title>
<polygon fill="#bdbdbd" stroke="black" points="978.729,-75 978.729,-111 1167.27,-111 1167.27,-75 978.729,-75"/>
<text text-anchor="middle" x="1073" y="-99" font-family="Arial" font-size="8.00">Apache ServiceMix :: Bundles :: xpp3</text>
<polyline fill="none" stroke="black" points="978.729,-93.8008 1167.27,-93.8008 "/>
<text text-anchor="middle" x="1073" y="-81.3008" font-family="Arial" font-size="8.00">org.apache.servicemix.bundles.xpp3(1.1.0.4c_5)</text>
</g>
<!-- org_apache_servicemix_bundles_xstream&#45;&gt;org_apache_servicemix_bundles_xpp3 -->
<g id="edge34" class="edge"><title>org_apache_servicemix_bundles_xstream&#45;&gt;org_apache_servicemix_bundles_xpp3</title>
<path fill="none" stroke="#bdbdbd" d="M1085.97,-148.937C1084.03,-140.719 1081.66,-130.66 1079.47,-121.406"/>
<polygon fill="#bdbdbd" stroke="#bdbdbd" points="1082.82,-120.369 1077.12,-111.441 1076.01,-121.977 1082.82,-120.369"/>
</g>
<!-- org_apache_servicemix_bundles_cglib -->
<g id="node13" class="node"><title>org_apache_servicemix_bundles_cglib</title>
<polygon fill="#bdbdbd" stroke="black" points="1185.18,-75 1185.18,-111 1368.82,-111 1368.82,-75 1185.18,-75"/>
<text text-anchor="middle" x="1277" y="-99" font-family="Arial" font-size="8.00">Apache ServiceMix Bundles: cglib&#45;2.1_3</text>
<polyline fill="none" stroke="black" points="1185.18,-93.8008 1368.82,-93.8008 "/>
<text text-anchor="middle" x="1277" y="-81.3008" font-family="Arial" font-size="8.00">org.apache.servicemix.bundles.cglib(2.1.0.3_4)</text>
</g>
<!-- org_apache_servicemix_bundles_xstream&#45;&gt;org_apache_servicemix_bundles_cglib -->
<g id="edge36" class="edge"><title>org_apache_servicemix_bundles_xstream&#45;&gt;org_apache_servicemix_bundles_cglib</title>
<path fill="none" stroke="#bdbdbd" d="M1134.32,-148.937C1160.89,-138.707 1194.86,-125.626 1222.99,-114.794"/>
<polygon fill="#bdbdbd" stroke="#bdbdbd" points="1224.6,-117.925 1232.68,-111.065 1222.09,-111.392 1224.6,-117.925"/>
</g>
<!-- org_apache_sling_scripting_jsp&#45;&gt;slf4j_api -->
<g id="edge48" class="edge"><title>org_apache_sling_scripting_jsp&#45;&gt;slf4j_api</title>
<path fill="none" stroke="#bdbdbd" d="M725.419,-185.183C753.287,-223.742 820.918,-317.321 853.65,-362.61"/>
<polygon fill="#bdbdbd" stroke="#bdbdbd" points="850.829,-364.682 859.524,-370.737 856.503,-360.582 850.829,-364.682"/>
</g>
<!-- org_apache_sling_scripting_jsp&#45;&gt;org_apache_felix_http_jetty -->
<g id="edge44" class="edge"><title>org_apache_sling_scripting_jsp&#45;&gt;org_apache_felix_http_jetty</title>
<path fill="none" stroke="#bdbdbd" d="M719.34,-148.998C728.173,-127.816 746.288,-92.2003 774,-74 810.588,-49.97 924.693,-34.5362 1001.69,-26.5663"/>
<polygon fill="#bdbdbd" stroke="#bdbdbd" points="1002.23,-30.0295 1011.82,-25.5378 1001.52,-23.0653 1002.23,-30.0295"/>
</g>
<!-- org_apache_felix_scr -->
<g id="node14" class="node"><title>org_apache_felix_scr</title>
<polygon fill="#bdbdbd" stroke="black" points="161.309,-75 161.309,-111 298.691,-111 298.691,-75 161.309,-75"/>
<text text-anchor="middle" x="230" y="-99" font-family="Arial" font-size="8.00">Apache Felix Declarative Services</text>
<polyline fill="none" stroke="black" points="161.309,-93.8008 298.691,-93.8008 "/>
<text text-anchor="middle" x="230" y="-81.3008" font-family="Arial" font-size="8.00">org.apache.felix.scr(1.6.0)</text>
</g>
<!-- org_apache_sling_scripting_jsp&#45;&gt;org_apache_felix_scr -->
<g id="edge38" class="edge"><title>org_apache_sling_scripting_jsp&#45;&gt;org_apache_felix_scr</title>
<path fill="none" stroke="#bdbdbd" d="M639.38,-155.026C550.163,-141.726 400.447,-119.408 308.913,-105.763"/>
<polygon fill="#bdbdbd" stroke="#bdbdbd" points="309.277,-102.279 298.871,-104.266 308.245,-109.203 309.277,-102.279"/>
</g>
<!-- org_apache_sling_api -->
<g id="node15" class="node"><title>org_apache_sling_api</title>
<polygon fill="#bdbdbd" stroke="black" points="430.637,-75 430.637,-111 541.363,-111 541.363,-75 430.637,-75"/>
<text text-anchor="middle" x="486" y="-99" font-family="Arial" font-size="8.00">Apache Sling API</text>
<polyline fill="none" stroke="black" points="430.637,-93.8008 541.363,-93.8008 "/>
<text text-anchor="middle" x="486" y="-81.3008" font-family="Arial" font-size="8.00">org.apache.sling.api(2.2.4)</text>
</g>
<!-- org_apache_sling_scripting_jsp&#45;&gt;org_apache_sling_api -->
<g id="edge40" class="edge"><title>org_apache_sling_scripting_jsp&#45;&gt;org_apache_sling_api</title>
<path fill="none" stroke="#bdbdbd" d="M659.204,-148.937C626.389,-138.529 584.265,-125.168 549.777,-114.229"/>
<polygon fill="#bdbdbd" stroke="#bdbdbd" points="550.393,-110.752 539.803,-111.065 548.276,-117.425 550.393,-110.752"/>
</g>
<!-- org_apache_sling_commons_classloader -->
<g id="node16" class="node"><title>org_apache_sling_commons_classloader</title>
<polygon fill="#bdbdbd" stroke="black" points="783.293,-75 783.293,-111 960.707,-111 960.707,-75 783.293,-75"/>
<text text-anchor="middle" x="872" y="-99" font-family="Arial" font-size="8.00">Apache Sling Dynamic Class Loader Support</text>
<polyline fill="none" stroke="black" points="783.293,-93.8008 960.707,-93.8008 "/>
<text text-anchor="middle" x="872" y="-81.3008" font-family="Arial" font-size="8.00">org.apache.sling.commons.classloader(1.3.0)</text>
</g>
<!-- org_apache_sling_scripting_jsp&#45;&gt;org_apache_sling_commons_classloader -->
<g id="edge42" class="edge"><title>org_apache_sling_scripting_jsp&#45;&gt;org_apache_sling_commons_classloader</title>
<path fill="none" stroke="#bdbdbd" d="M750.681,-148.937C772.975,-138.841 801.404,-125.968 825.137,-115.221"/>
<polygon fill="#bdbdbd" stroke="#bdbdbd" points="826.649,-118.379 834.314,-111.065 823.761,-112.002 826.649,-118.379"/>
</g>
<!-- org_apache_sling_scripting_api -->
<g id="node17" class="node"><title>org_apache_sling_scripting_api</title>
<polygon fill="#bdbdbd" stroke="black" points="558.957,-75 558.957,-111 727.043,-111 727.043,-75 558.957,-75"/>
<text text-anchor="middle" x="643" y="-99" font-family="Arial" font-size="8.00">Apache Sling Scripting Implementation API</text>
<polyline fill="none" stroke="black" points="558.957,-93.8008 727.043,-93.8008 "/>
<text text-anchor="middle" x="643" y="-81.3008" font-family="Arial" font-size="8.00">org.apache.sling.scripting.api(2.1.4)</text>
</g>
<!-- org_apache_sling_scripting_jsp&#45;&gt;org_apache_sling_scripting_api -->
<g id="edge46" class="edge"><title>org_apache_sling_scripting_jsp&#45;&gt;org_apache_sling_scripting_api</title>
<path fill="none" stroke="#bdbdbd" d="M696.411,-148.937C687.648,-139.924 676.732,-128.696 667.057,-118.744"/>
<polygon fill="#bdbdbd" stroke="#bdbdbd" points="669.437,-116.171 659.956,-111.441 664.418,-121.05 669.437,-116.171"/>
</g>
<!-- org_apache_felix_eventadmin -->
<g id="node18" class="node"><title>org_apache_felix_eventadmin</title>
<polygon fill="#bdbdbd" stroke="black" points="-0.816406,-75 -0.816406,-111 142.816,-111 142.816,-75 -0.816406,-75"/>
<text text-anchor="middle" x="71" y="-99" font-family="Arial" font-size="8.00">Apache Felix EventAdmin</text>
<polyline fill="none" stroke="black" points="-0.816406,-93.8008 142.816,-93.8008 "/>
<text text-anchor="middle" x="71" y="-81.3008" font-family="Arial" font-size="8.00">org.apache.felix.eventadmin(1.2.14)</text>
</g>
<!-- org_apache_sling_scripting_jsp&#45;&gt;org_apache_felix_eventadmin -->
<g id="edge50" class="edge"><title>org_apache_sling_scripting_jsp&#45;&gt;org_apache_felix_eventadmin</title>
<path fill="none" stroke="#bdbdbd" d="M639.571,-161.815C534,-155.159 333.13,-140.111 152.831,-112.022"/>
<polygon fill="#bdbdbd" stroke="#bdbdbd" points="153.324,-108.557 142.901,-110.458 152.235,-115.471 153.324,-108.557"/>
</g>
<!-- org_apache_felix_scr&#45;&gt;org_apache_sling_commons_logservice -->
<g id="edge56" class="edge"><title>org_apache_felix_scr&#45;&gt;org_apache_sling_commons_logservice</title>
<path fill="none" stroke="#bdbdbd" d="M242.325,-111.314C249.184,-121.585 257.434,-135.085 263,-148 279.771,-186.911 288,-197.628 288,-240 288,-316 288,-316 288,-316 288,-362.746 319.265,-409.199 341.95,-436.752"/>
<polygon fill="#bdbdbd" stroke="#bdbdbd" points="339.533,-439.313 348.67,-444.676 344.871,-434.785 339.533,-439.313"/>
</g>
<!-- org_apache_felix_scr&#45;&gt;org_apache_felix_configadmin -->
<g id="edge58" class="edge"><title>org_apache_felix_scr&#45;&gt;org_apache_felix_configadmin</title>
<path fill="none" stroke="#bdbdbd" d="M222.295,-111.133C210.929,-138.012 191,-191.988 191,-240 191,-316 191,-316 191,-316 191,-357.66 183.299,-405.453 177.702,-434.683"/>
<polygon fill="#bdbdbd" stroke="#bdbdbd" points="174.254,-434.078 175.754,-444.566 181.122,-435.432 174.254,-434.078"/>
</g>
<!-- org_apache_felix_metatype -->
<g id="node19" class="node"><title>org_apache_felix_metatype</title>
<polygon fill="#bdbdbd" stroke="black" points="164.635,-1 164.635,-37 295.365,-37 295.365,-1 164.635,-1"/>
<text text-anchor="middle" x="230" y="-25" font-family="Arial" font-size="8.00">Apache Felix Metatype Service</text>
<polyline fill="none" stroke="black" points="164.635,-19.8008 295.365,-19.8008 "/>
<text text-anchor="middle" x="230" y="-7.30078" font-family="Arial" font-size="8.00">org.apache.felix.metatype(1.0.4)</text>
</g>
<!-- org_apache_felix_scr&#45;&gt;org_apache_felix_metatype -->
<g id="edge54" class="edge"><title>org_apache_felix_scr&#45;&gt;org_apache_felix_metatype</title>
<path fill="none" stroke="#bdbdbd" d="M230,-74.937C230,-66.8072 230,-56.8761 230,-47.7047"/>
<polygon fill="#bdbdbd" stroke="#bdbdbd" points="233.5,-47.4406 230,-37.4407 226.5,-47.4407 233.5,-47.4406"/>
</g>
<!-- org_apache_sling_api&#45;&gt;slf4j_api -->
<g id="edge62" class="edge"><title>org_apache_sling_api&#45;&gt;slf4j_api</title>
<path fill="none" stroke="#bdbdbd" d="M508.483,-111.125C574.253,-161.219 766.361,-307.539 841.434,-364.719"/>
<polygon fill="#bdbdbd" stroke="#bdbdbd" points="839.503,-367.648 849.579,-370.923 843.744,-362.079 839.503,-367.648"/>
</g>
<!-- org_apache_sling_api&#45;&gt;org_apache_felix_http_jetty -->
<g id="edge60" class="edge"><title>org_apache_sling_api&#45;&gt;org_apache_felix_http_jetty</title>
<path fill="none" stroke="#bdbdbd" d="M541.364,-75.8004C544.274,-75.1461 547.165,-74.54 550,-74 709.328,-43.6495 899.279,-29.471 1001.69,-23.5986"/>
<polygon fill="#bdbdbd" stroke="#bdbdbd" points="1002.14,-27.0789 1011.93,-23.0226 1001.75,-20.09 1002.14,-27.0789"/>
</g>
<!-- org_apache_sling_commons_classloader&#45;&gt;slf4j_api -->
<g id="edge64" class="edge"><title>org_apache_sling_commons_classloader&#45;&gt;slf4j_api</title>
<path fill="none" stroke="#bdbdbd" d="M872,-111.125C872,-160.101 872,-301.058 872,-360.761"/>
<polygon fill="#bdbdbd" stroke="#bdbdbd" points="868.5,-360.923 872,-370.923 875.5,-360.923 868.5,-360.923"/>
</g>
<!-- org_apache_felix_eventadmin&#45;&gt;org_apache_sling_commons_logservice -->
<g id="edge68" class="edge"><title>org_apache_felix_eventadmin&#45;&gt;org_apache_sling_commons_logservice</title>
<path fill="none" stroke="#bdbdbd" d="M122.008,-111.038C174.606,-132.212 249,-173.852 249,-240 249,-316 249,-316 249,-316 249,-368.526 295.596,-413.118 329.724,-438.734"/>
<polygon fill="#bdbdbd" stroke="#bdbdbd" points="327.952,-441.773 338.096,-444.83 332.072,-436.114 327.952,-441.773"/>
</g>
<!-- org_apache_felix_eventadmin&#45;&gt;org_apache_felix_configadmin -->
<g id="edge70" class="edge"><title>org_apache_felix_eventadmin&#45;&gt;org_apache_felix_configadmin</title>
<path fill="none" stroke="#bdbdbd" d="M88.3901,-111.127C112.46,-136.75 153,-187.671 153,-240 153,-316 153,-316 153,-316 153,-357.66 160.701,-405.453 166.298,-434.683"/>
<polygon fill="#bdbdbd" stroke="#bdbdbd" points="162.878,-435.432 168.246,-444.566 169.746,-434.078 162.878,-435.432"/>
</g>
<!-- org_apache_felix_eventadmin&#45;&gt;org_apache_felix_metatype -->
<g id="edge66" class="edge"><title>org_apache_felix_eventadmin&#45;&gt;org_apache_felix_metatype</title>
<path fill="none" stroke="#bdbdbd" d="M108.681,-74.937C130.975,-64.8413 159.404,-51.968 183.137,-41.221"/>
<polygon fill="#bdbdbd" stroke="#bdbdbd" points="184.649,-44.3786 192.314,-37.0651 181.761,-38.0019 184.649,-44.3786"/>
</g>
<!-- org_apache_felix_metatype&#45;&gt;org_apache_sling_commons_logservice -->
<g id="edge72" class="edge"><title>org_apache_felix_metatype&#45;&gt;org_apache_sling_commons_logservice</title>
<path fill="none" stroke="#bdbdbd" d="M263.025,-37.054C302.991,-60.3336 365,-106.104 365,-166 365,-316 365,-316 365,-316 365,-357.356 365,-405.3 365,-434.637"/>
<polygon fill="#bdbdbd" stroke="#bdbdbd" points="361.5,-434.917 365,-444.917 368.5,-434.917 361.5,-434.917"/>
</g>
</g>
</svg>
